<svg width="45" height="45" viewBox="0 0 45 45" fill="none" xmlns="http://www.w3.org/2000/svg">
<path d="M7.80301 0C-5.67897 13.05 1.63938 25.3875 6.98379 29.925L22.9 14.5125L7.80301 0Z" fill="#75C08F"/>
<path d="M43.4481 25.65L22.7336 45L6.93444 29.925C16.8041 20.3625 36.7774 1.035 37.7136 0.225002C40.7096 -0.404998 40.9125 1.6875 40.6394 2.8125L26.0105 16.875L26.4786 17.325C30.7698 13.0875 39.5393 4.4775 40.2883 3.9375C43.097 3.3075 43.4091 5.475 43.2141 6.6375L29.1703 20.025L29.6385 20.475C33.1884 16.9875 40.5692 9.765 41.6927 8.775C44.6887 7.785 44.9695 10.1625 44.7355 11.475L32.4472 23.2875L32.7983 23.7375C35.49 21.0375 41.1075 15.48 42.0438 14.85C44.7589 14.22 45.1256 16.3875 44.9695 17.55L35.49 26.325L35.9581 26.775C37.1285 25.65 39.6329 23.265 40.2883 22.725C43.1907 21.915 43.6042 24.3375 43.4481 25.65Z" fill="#A4FF00"/>
<path d="M37.5966 28.8L7.75366 0C-5.93897 13.3875 2.49343 25.0963 3.35583 26.325C4.14545 27.45 9.74319 32.7375 10.3283 33.1875C13.7925 33.7275 13.7222 31.5375 13.2541 30.375L9.97725 27.1125L10.3283 26.775C13.1371 29.55 18.9418 35.235 19.6908 35.775C22.3123 36.405 22.7336 34.3125 22.6166 33.1875L13.2541 23.9625L13.6052 23.625C17.1552 27.1875 24.6295 34.605 26.1275 35.775C29.2172 36.135 29.2874 34.05 28.9363 32.9625L16.414 20.8125L16.7651 20.475C20.6271 24.225 28.8661 32.1975 30.9258 34.0875C34.0154 34.7175 34.1637 32.55 33.8516 31.3875L19.6908 17.6625L20.0419 17.325C23.7089 20.9625 31.7684 28.8675 34.6708 31.3875C37.9477 32.2875 37.9867 30.0375 37.5966 28.8Z" fill="#44E270"/>
</svg>
